<?xml version="1.0" encoding="UTF-8"?>
<svg xmlns="http://www.w3.org/2000/svg" xmlns:xlink="http://www.w3.org/1999/xlink" width="35px" height="35px" viewBox="0 0 35 35" version="1.1">
<defs>
<filter id="alpha" filterUnits="objectBoundingBox" x="0%" y="0%" width="100%" height="100%">
  <feColorMatrix type="matrix" in="SourceGraphic" values="0 0 0 0 1 0 0 0 0 1 0 0 0 0 1 0 0 0 1 0"/>
</filter>
<mask id="mask0">
  <g filter="url(#alpha)">
<rect x="0" y="0" width="35" height="35" style="fill:rgb(0%,0%,0%);fill-opacity:0.992157;stroke:none;"/>
  </g>
</mask>
<clipPath id="clip1">
  <rect x="0" y="0" width="35" height="35"/>
</clipPath>
<g id="surface5" clip-path="url(#clip1)">
<path style=" stroke:none;fill-rule:evenodd;fill:rgb(12.941176%,58.823529%,95.294118%);fill-opacity:1;" d="M -0.0351562 24.4375 C -0.0351562 24.1875 -0.0351562 23.9375 -0.0351562 23.6875 C 0.0273438 23.546875 0.105469 23.410156 0.203125 23.277344 C 1.117188 22.375 2.015625 21.464844 2.90625 20.542969 C 1.296875 18.738281 0.316406 16.640625 -0.0351562 14.253906 C -0.0351562 13.476562 -0.0351562 12.703125 -0.0351562 11.929688 C 0.515625 8.519531 2.203125 5.820312 5.023438 3.828125 C 9.25 1.089844 13.804688 0.359375 18.695312 1.640625 C 21.675781 2.484375 24.148438 4.09375 26.113281 6.460938 C 28.761719 10.089844 29.128906 13.9375 27.207031 18.011719 C 25.488281 20.960938 23.015625 23.023438 19.789062 24.199219 C 18.457031 24.648438 17.089844 24.941406 15.6875 25.085938 C 10.675781 25.132812 5.664062 25.132812 0.648438 25.085938 C 0.339844 24.949219 0.113281 24.734375 -0.0351562 24.4375 Z M -0.0351562 24.4375 "/>
</g>
<mask id="mask1">
  <g filter="url(#alpha)">
<rect x="0" y="0" width="35" height="35" style="fill:rgb(0%,0%,0%);fill-opacity:0.988235;stroke:none;"/>
  </g>
</mask>
<clipPath id="clip2">
  <rect x="0" y="0" width="35" height="35"/>
</clipPath>
<g id="surface8" clip-path="url(#clip2)">
<path style=" stroke:none;fill-rule:evenodd;fill:rgb(39.215686%,70.980392%,96.470588%);fill-opacity:1;" d="M 34.964844 20.679688 C 34.964844 21.453125 34.964844 22.226562 34.964844 23.003906 C 34.621094 25.386719 33.640625 27.472656 32.027344 29.257812 C 32.902344 30.199219 33.800781 31.125 34.726562 32.027344 C 34.828125 32.160156 34.90625 32.296875 34.964844 32.4375 C 34.964844 32.6875 34.964844 32.9375 34.964844 33.1875 C 34.820312 33.484375 34.589844 33.699219 34.28125 33.835938 C 29.292969 33.882812 24.300781 33.882812 19.3125 33.835938 C 15.542969 33.523438 12.320312 32.054688 9.640625 29.429688 C 9.078125 28.753906 8.542969 28.058594 8.03125 27.34375 C 10.082031 27.320312 12.132812 27.296875 14.183594 27.273438 C 19.464844 27.242188 23.871094 25.292969 27.414062 21.429688 C 29.40625 19.042969 30.464844 16.285156 30.589844 13.160156 C 33.035156 15.085938 34.496094 17.59375 34.964844 20.679688 Z M 34.964844 20.679688 "/>
</g>
</defs>
<g id="surface1">
<use xlink:href="#surface5" mask="url(#mask0)"/>
<path style=" stroke:none;fill-rule:evenodd;fill:rgb(97.647059%,97.647059%,97.647059%);fill-opacity:1;" d="M 7.347656 9.808594 C 11.90625 9.796875 16.464844 9.808594 21.019531 9.84375 C 21.84375 10.214844 22.035156 10.792969 21.601562 11.585938 C 21.433594 11.753906 21.242188 11.882812 21.019531 11.960938 C 16.464844 12.007812 11.90625 12.007812 7.347656 11.960938 C 6.828125 11.785156 6.554688 11.421875 6.527344 10.867188 C 6.585938 10.34375 6.859375 9.992188 7.347656 9.808594 Z M 7.347656 9.808594 "/>
<use xlink:href="#surface8" mask="url(#mask1)"/>
<path style=" stroke:none;fill-rule:evenodd;fill:rgb(97.647059%,97.647059%,97.647059%);fill-opacity:1;" d="M 7.347656 14.183594 C 10.449219 14.171875 13.546875 14.183594 16.644531 14.21875 C 17.46875 14.589844 17.660156 15.167969 17.226562 15.960938 C 17.058594 16.128906 16.867188 16.257812 16.644531 16.335938 C 13.546875 16.382812 10.449219 16.382812 7.347656 16.335938 C 6.578125 16.003906 6.359375 15.445312 6.699219 14.664062 C 6.890625 14.460938 7.109375 14.300781 7.347656 14.183594 Z M 7.347656 14.183594 "/>
</g>
</svg>
